<?xml version="1.0" encoding="utf-8"?>
<!-- Generator: Adobe Illustrator 21.0.0, SVG Export Plug-In . SVG Version: 6.00 Build 0)  -->
<svg version="1.1" id="Layer_1" xmlns="http://www.w3.org/2000/svg" xmlns:xlink="http://www.w3.org/1999/xlink" x="0px" y="0px"
	 viewBox="0 0 571 576" style="enable-background:new 0 0 571 576;" xml:space="preserve">
<style type="text/css">
	.st0{fill:#231F20;}
	.st1{fill:#E2231A;}
</style>
<g>
	<path class="st0" d="M400.879,265.36l-90.27-90.27c0,0-22.61-22.61-45.219,0l-90.27,90.27c0,0-22.61,22.609,0,45.219l90.27,90.267
		c0,0,22.61,22.61,45.219,0l90.27-90.267C400.879,310.579,423.489,287.969,400.879,265.36L400.879,265.36z M351.985,301.643
		c0,12.512-12.515,12.512-12.515,12.512h-25.283v25.282c0,12.52-12.516,12.52-12.516,12.52h-27.343
		c-12.516,0-12.516-12.52-12.516-12.52v-25.282h-25.284c-12.515,0-12.515-12.512-12.515-12.512v-27.346
		c0-12.513,12.515-12.513,12.515-12.513h25.284v-25.282c0-12.518,12.516-12.518,12.516-12.518h27.343
		c12.516,0,12.516,12.518,12.516,12.518v25.282h25.283c12.515,0,12.515,12.513,12.515,12.513V301.643L351.985,301.643z"/>
	<path class="st1" d="M524.152,410.359l-96.905,96.889c67.151-67.151,67.151-176.927,0-243.891L316.791,152.883
		C487.448,42.24,666.977,267.541,524.152,410.359L524.152,410.359L524.152,410.359z M410.383,51.807
		C267.553-91.015,42.276,88.517,152.915,259.182l110.472-110.474c66.978-67.152,176.739-67.152,243.89,0L410.383,51.807
		L410.383,51.807L410.383,51.807z M51.844,165.591l96.897-96.733c-67.146,66.981-67.146,176.751,0,243.91L259.213,423.23
		C88.546,533.87-90.972,308.585,51.844,165.591L51.844,165.591L51.844,165.591z M165.612,524.131
		C308.611,666.956,533.891,487.42,423.248,316.75L312.792,427.226c-67.154,67.135-176.916,67.135-243.902,0L165.612,524.131
		L165.612,524.131L165.612,524.131z"/>
</g>
</svg>
