<?xml version="1.0" encoding="utf-8"?>
<!-- Generator: Adobe Illustrator 21.0.0, SVG Export Plug-In . SVG Version: 6.00 Build 0)  -->
<svg version="1.1" id="Layer_1" xmlns="http://www.w3.org/2000/svg" xmlns:xlink="http://www.w3.org/1999/xlink" x="0px" y="0px"
	 viewBox="0 0 591 590" style="enable-background:new 0 0 591 590;" xml:space="preserve">
<style type="text/css">
	.st0{fill:#231F20;}
	.st1{fill:#E2231A;}
</style>
<path class="st0" d="M408.38,272.392l-90.27-90.27c0,0-22.61-22.61-45.219,0l-90.27,90.27c0,0-22.61,22.609,0,45.219l90.27,90.267
	c0,0,22.61,22.61,45.219,0l90.27-90.267C408.38,317.611,430.989,295.001,408.38,272.392L408.38,272.392z M359.485,308.675
	c0,12.512-12.515,12.512-12.515,12.512h-25.283v25.282c0,12.52-12.516,12.52-12.516,12.52h-27.343
	c-12.516,0-12.516-12.52-12.516-12.52v-25.282h-25.284c-12.515,0-12.515-12.512-12.515-12.512v-27.346
	c0-12.513,12.515-12.513,12.515-12.513h25.284v-25.282c0-12.518,12.516-12.518,12.516-12.518h27.343
	c12.516,0,12.516,12.518,12.516,12.518v25.282h25.283c12.515,0,12.515,12.513,12.515,12.513V308.675L359.485,308.675z"/>
<path class="st1 one" d="M173.112,531.162c142.999,142.825,368.279-36.711,257.636-207.382L320.292,434.257
	c-67.154,67.135-176.916,67.135-243.902,0L173.112,531.162L173.112,531.162L173.112,531.162z"/>
<path class="st1 two" d="M531.652,417.389l-96.905,96.889c67.151-67.151,67.151-176.927,0-243.891L324.291,159.914
	C494.948,49.27,674.477,274.572,531.652,417.389L531.652,417.389L531.652,417.389z"/>
<path class="st1 three" d="M417.883,58.837C275.053-83.985,49.776,95.547,160.415,266.212l110.472-110.474
	c66.978-67.152,176.739-67.152,243.89,0L417.883,58.837L417.883,58.837L417.883,58.837z"/>
<path class="st1 four" d="M59.344,172.622l96.897-96.733c-67.146,66.981-67.146,176.751,0,243.91L266.713,430.26
	C96.046,540.9-83.472,315.615,59.344,172.622L59.344,172.622L59.344,172.622z"/>
</svg>
